HIERARCHY
ROOT pelvis
{
  OFFSET 0 100 0
  CHANNELS 6 Xposition Yposition Zposition Zrotation Xrotation Yrotation
  JOINT pelvis_right_femur
  {
    OFFSET -10.78128 -3.44521 -0.5502486
    CHANNELS 3 Zrotation Xrotation Yrotation
    JOINT right_femur_tibia
    {
      OFFSET -0.8047443 -44.0398 -0.1307829
      CHANNELS 3 Zrotation Xrotation Yrotation
      JOINT right_tibia_foot
      {
        OFFSET 3.006224 -47.83518 -5
        CHANNELS 3 Zrotation Xrotation Yrotation
        End Site
        {
          OFFSET 0 -5 15
        }
      }
    }
  }
  JOINT pelvis_left_femur
  {
    OFFSET 10.78128 -3.44521 -0.5502486
    CHANNELS 3 Zrotation Xrotation Yrotation
    JOINT left_femur_tibia
    {
      OFFSET 0.8047443 -44.0398 -0.1307829
      CHANNELS 3 Zrotation Xrotation Yrotation
      JOINT left_tibia_foot
      {
        OFFSET -4.370144 -48.10324 -4.275266
        CHANNELS 3 Zrotation Xrotation Yrotation
        End Site
        {
          OFFSET 0 -5 15
        }
      }
    }
  }
  JOINT pelvis_spine1
  {
    OFFSET 0 6.468898 -3.129235
    CHANNELS 3 Zrotation Xrotation Yrotation
    JOINT spine1
    {
      OFFSET 0 23.15396 4.99043
      CHANNELS 3 Zrotation Xrotation Yrotation
      JOINT spine2
      {
        OFFSET 0 20.79997 -5.064912
        CHANNELS 3 Zrotation Xrotation Yrotation
        JOINT neck
        {
          OFFSET 0 14.38658 9.616178
          CHANNELS 3 Zrotation Xrotation Yrotation
          End Site
          {
            OFFSET 0 20 0
          }
        }
      }
      JOINT right_manubrium
      {
        OFFSET -5.722621 16.35077 3.967754
        CHANNELS 3 Zrotation Xrotation Yrotation
        JOINT right_clavicle
        {
          OFFSET -13.16364 1.694482 -4.693211
          CHANNELS 3 Zrotation Xrotation Yrotation
          JOINT right_humerus
          {
            OFFSET -28.5034 -0.3100689 -2.792744
            CHANNELS 3 Zrotation Xrotation Yrotation
            JOINT right_radius
            {
              OFFSET -25.15693 0.02248979 -1.271978
              CHANNELS 3 Zrotation Xrotation Yrotation
              End Site
              {
                OFFSET -15 0 0
              }
            }
          }
        }
      }
      JOINT left_manubrium
      {
        OFFSET 5.722621 16.35077 3.967754
        CHANNELS 3 Zrotation Xrotation Yrotation
        JOINT left_clavicle
        {
          OFFSET 13.16364 1.694482 -4.693211
          CHANNELS 3 Zrotation Xrotation Yrotation
          JOINT left_humerus
          {
            OFFSET 29.39168 -1.063119 -2.237045
            CHANNELS 3 Zrotation Xrotation Yrotation
            JOINT left_radius
            {
              OFFSET 24.59957 -0.9528479 0.9047498
              CHANNELS 3 Zrotation Xrotation Yrotation
              End Site
              {
                OFFSET 15 -0 -0
              }
            }
          }
        }
      }
    }
  }
}
MOTION
Frames: 19
Frame Time: 0.0416666666667
24.29125 101.3011 273.8546 -0.1408277 -1.069851 -1.043388 1.721189 10.06166 6.056364 -0 38.79218 -0 9.136285 -7.322517 -7.267718 -0.02317095 -28.6405 -6.251807 -0 26.76204 -0 -8.444013 -8.917788 16.89359 0.4600237 -6.562716 9.453292 -2.158897 11.62384 -2.959803 1.927648 19.47963 3.745677 1.517504 -14.27588 4.948284 -1.234276 -24.20245 10.39676 84.30751 16.39235 -9.288388 -0 0 28.62604 -26.74532 8.635667 14.15004 4.221687 -15.65904 -1.953337 -93.40175 23.04153 26.10349 0 0 -13.30647 -3.728484 4.885539 21.03212
25.37064 102.0492 281.0195 -0.1140592 -0.9348878 0.03452364 1.731806 7.044281 5.669878 -0 46.98638 -0 10.24799 -3.885713 -8.161 -1.311372 -24.94467 -7.299349 -0 27.46985 -0 -7.832025 -10.71825 16.16032 0.1886979 -7.431574 8.79167 -2.022011 11.63415 -3.186953 1.985352 19.79829 3.720609 1.2893 -14.20738 5.186652 -0.5808834 -23.07374 10.20714 85.21602 16.38321 -10.8795 -0 0 26.20941 -26.36058 8.780774 13.43985 4.200207 -15.71106 -1.975113 -92.65126 23.39917 25.20194 0 0 -13.34235 -3.853736 5.048511 21.09162
26.46623 103.1529 287.6872 -0.09766366 -0.8435275 0.7612676 2.031131 1.595616 5.378179 -0 53.87152 -0 10.08089 -3.320634 -9.066402 -2.269364 -20.71999 -7.993753 -0 27.28927 -0 -7.253772 -12.63153 15.64544 0.1085448 -7.956268 7.905817 -1.835874 11.62724 -3.451098 1.857971 20.2059 3.870496 0.9582883 -14.13531 5.513646 0.3263512 -22.17042 10.24755 86.12724 16.59486 -12.5047 -0 0 23.42026 -25.80415 8.999098 12.65022 4.024528 -16.18481 -2.16466 -91.40717 23.84762 23.52322 0 0 -13.68124 -3.756326 5.325563 20.881
27.31826 104.7487 294.0479 -0.09177113 -0.8065418 1.051532 2.397588 -6.648952 5.033338 -0 56.7365 -0 9.115348 -5.019359 -9.185885 -2.606458 -16.18837 -8.202301 -0 26.03322 -0 -6.939652 -14.08102 15.10302 -0.1680726 -8.11914 6.878988 -1.519968 11.74492 -3.8917 1.687602 20.82414 4.081611 0.6090333 -13.97523 5.88986 1.226211 -21.25499 10.26637 87.27589 16.86042 -14.23263 -0 0 20.74217 -25.18976 9.216218 11.90983 3.958964 -16.88113 -2.44804 -89.77498 24.3333 21.1791 0 0 -14.39512 -3.409137 5.728682 20.3997
28.16321 105.9736 299.8167 -0.07248225 -0.6843055 2.024781 2.706069 -13.79362 4.747511 -0 55.37642 -0 7.774579 -6.06666 -9.452851 -2.952972 -10.98407 -7.950415 -0 23.41889 -0 -6.770855 -15.41848 14.37952 -0.4457629 -8.129836 5.653175 -1.113913 11.41864 -4.795593 1.514025 21.20046 4.425285 0.2344184 -14.07754 6.443279 1.457046 -20.23532 10.03894 88.36839 17.07313 -16.08021 -0 0 18.46683 -24.6463 9.348277 11.30213 4.250516 -17.6213 -2.886863 -88.01287 24.78995 18.24814 0 0 -15.61119 -2.946191 6.205627 19.71257
29.06545 106.5973 305.3902 -0.04939484 -0.5194195 3.339241 2.586843 -19.76115 4.58953 -0 50.21568 -0 6.216853 -6.289482 -10.06209 -3.169184 -6.262178 -7.876952 -0 20.71513 -0 -6.659479 -16.72534 13.45526 -0.7568827 -7.968659 4.446995 -0.5892456 11.14798 -5.93942 1.497697 21.61362 4.642474 -0.02383188 -14.05055 6.938547 1.239259 -19.29044 9.608198 89.21043 17.22034 -17.90137 -0 0 16.57975 -24.20311 9.370946 10.82881 4.683289 -18.56288 -3.369862 -86.19028 25.18053 14.95968 0 0 -17.13997 -2.441924 6.699458 18.85356
29.87977 106.4537 311.1649 -0.02498649 -0.3083926 5.022965 2.075829 -24.58143 4.47843 -0 42.10403 -0 4.59963 -5.928463 -10.90923 -3.15206 -1.845818 -7.837079 -0 18.59925 -0 -6.535585 -18.22186 12.40508 -0.9852865 -7.988757 3.490474 -0.06902274 10.71805 -7.08408 1.62196 21.92358 4.67085 -0.1812965 -14.05285 7.285172 0.632755 -18.42633 8.914464 89.71744 17.32076 -19.64822 -0 0 15.018 -23.85442 9.308304 10.52035 5.280194 -19.46043 -3.478224 -84.39511 25.42397 11.60997 0 0 -18.96938 -1.842764 7.236966 17.79942
30.57839 105.6925 316.96 -0.01071562 -0.1515107 6.274478 1.365439 -28.08875 4.211228 -0 32.4326 -0 2.975333 -5.153152 -11.51081 -2.984906 2.262263 -7.727384 -0 17.36823 -0 -6.414616 -19.85311 11.41184 -1.252052 -7.768192 2.812169 0.4520652 10.37825 -7.996535 1.758461 21.96844 4.659637 -0.312797 -14.23594 7.562059 0.1592798 -17.19304 8.257523 90.47653 17.29177 -21.61585 -0 0 13.03108 -23.34606 9.191007 9.861058 5.929931 -20.42229 -3.479144 -82.55769 25.58276 8.358622 0 0 -20.76607 -1.136353 7.7895 16.62594
31.18415 104.3794 323.1067 -0.001257823 -0.02021846 7.32339 0.5069728 -31.02343 4.011836 -0 24.20361 -0 1.292312 -4.961289 -11.781 -2.740011 5.98894 -7.562788 -0 17.29837 -0 -6.330299 -21.37963 10.67312 -1.372966 -7.621501 2.377053 1.006492 10.05102 -8.607084 1.800721 21.92304 4.665024 -0.4656598 -14.49425 7.75286 0.06429917 -16.07004 7.76743 91.20333 17.27784 -23.3515 -0 0 10.87701 -22.77966 9.104639 9.097191 6.452791 -21.33157 -3.371066 -80.90949 25.66848 5.527171 0 0 -22.30203 -0.3754113 8.327503 15.44661
31.66616 103.1643 328.98 0.001771706 0.02984235 7.724097 0.5740566 -32.70182 3.708262 -0 16.67074 -0 -0.6078175 -5.737928 -11.09667 -2.540673 9.003739 -7.197804 -0 18.51505 -0 -6.446393 -22.16329 10.2919 -1.35587 -6.86685 2.163294 1.236893 9.708029 -8.860141 1.831432 21.99216 4.617664 -0.5899246 -14.72246 7.843505 -0.169294 -15.54361 7.551044 91.43792 17.43694 -24.31102 -0 0 8.903063 -22.45031 9.023666 8.403897 6.896106 -22.3069 -3.133964 -79.35585 25.69405 3.159872 0 0 -23.41764 0.402816 8.831231 14.34795
32.07869 102.0594 334.9354 -0.0002733689 -0.004380222 7.449969 1.605079 -32.39828 2.661285 -0 13.47631 -0 -1.836166 -5.825643 -11.34639 -2.430981 11.16346 -6.896565 -0 21.38353 -0 -6.838297 -21.67406 10.24374 -1.165967 -6.357081 2.241496 1.463827 9.22197 -8.705067 1.920647 21.99738 4.70739 -0.703296 -15.2046 8.166545 -0.1520332 -15.09908 7.54349 91.81065 17.57986 -25.022 -0 0 6.904369 -22.03757 9.009294 7.625334 7.003288 -23.06527 -2.947662 -78.39176 25.75651 1.626163 0 0 -23.87196 1.080349 9.271777 13.472
32.47052 101.3073 342.0685 0.004679846 0.08223082 8.145127 3.05345 -30.90041 3.497107 -0 16.08419 -0 -2.950302 -5.252096 -11.32074 -2.053541 12.44264 -6.98779 -0 26.33715 -0 -7.502934 -19.46731 10.6718 -0.9058749 -6.972147 2.158624 1.594253 8.964639 -8.559282 2.036187 22.29165 4.667864 -0.7510555 -15.48506 8.330745 -0.09449919 -14.66553 7.42675 92.34271 17.65151 -25.24893 -0 0 5.405597 -21.63035 9.02163 6.972475 6.854549 -23.0748 -2.554992 -78.63032 26.00242 1.403995 0 0 -23.67598 1.509796 9.633467 12.90907
32.90923 101.278 349.8351 0.008711351 0.1699872 8.850384 3.605939 -30.01792 5.220304 -0 21.1099 -0 -4.136943 -4.977994 -11.23386 -1.864721 12.11776 -7.158323 -0 33.59036 -0 -8.320106 -15.58943 11.79909 -0.7141801 -8.304306 1.973191 1.699381 9.000625 -8.64675 2.157536 22.8108 4.543619 -0.7620169 -15.65118 8.381552 -0.3150704 -14.26694 7.134656 92.66287 17.72846 -25.05976 -0 0 4.525389 -21.30836 9.023383 6.500064 6.641524 -22.30261 -2.171742 -79.85836 26.43962 2.417294 0 0 -22.83981 1.63596 9.95692 12.64102
33.27832 102.0599 357.3141 0.005312562 0.09315444 8.234078 4.306089 -27.4378 7.17512 -0 25.88053 -0 -5.572141 -5.797299 -10.70115 -1.487273 7.975173 -7.441567 -0 42.434 -0 -8.595705 -12.19207 13.98061 -0.5400354 -9.500938 2.430956 1.966873 9.268644 -8.338932 2.203468 23.51702 4.394153 -0.8062705 -15.88303 8.341655 -0.2896321 -14.1923 7.119619 92.39719 17.93538 -24.28046 -0 0 4.095792 -21.21331 8.956406 6.293331 6.165745 -21.32822 -1.819944 -81.6831 26.95832 4.175632 0 0 -21.54819 1.483095 10.27972 12.58072
33.69417 102.9708 364.7471 0.002906959 0.04804274 7.871662 5.153761 -23.97714 8.558218 -0 28.5251 -0 -6.600754 -7.311185 -10.60186 -2.503625 3.554716 -7.02901 -0 52.05919 -0 -9.038495 -8.560144 16.18392 -0.4756874 -10.91057 3.046146 2.314022 9.393547 -8.059754 2.393333 24.07216 4.068189 -0.7675022 -16.27556 8.180341 -0.1283875 -14.3382 7.208752 91.816 18.13289 -22.93977 -0 0 4.364315 -21.38938 8.795225 6.392501 5.50605 -20.26023 -1.605651 -84.00007 27.50787 6.450683 0 0 -19.92314 1.05367 10.6021 12.6876
34.23717 104.3972 371.434 -0.00682904 -0.09629068 6.709581 5.580155 -19.08934 8.956733 -0 27.9011 -0 -7.222602 -8.82854 -10.50145 -2.559067 -3.338448 -7.262472 -0 58.54692 -0 -8.387848 -6.807379 18.09586 -0.304229 -11.66191 3.916423 2.64629 9.613641 -7.646867 2.31697 24.69352 3.924716 -0.8712337 -16.4902 8.039137 0.04991557 -14.76318 7.187884 90.97959 18.34054 -21.21949 -0 0 4.861435 -21.79515 8.561492 6.718122 4.928753 -19.34768 -1.341438 -86.51633 27.96288 8.956137 0 0 -18.18663 0.4886124 10.92068 12.88581
34.35487 105.8197 376.8848 -0.01032282 -0.1393001 6.362829 5.594011 -14.2149 8.659677 -0 25.2162 -0 -7.475644 -10.00918 -10.38444 -2.297263 -10.95935 -7.404341 -0 61.58249 -0 -7.347064 -5.799089 19.31433 -0.4284671 -11.29167 4.828946 2.709586 9.589283 -6.874601 2.370733 25.09061 3.625978 -0.9043029 -16.67505 7.793911 -0.1488468 -15.23007 7.528508 90.18861 18.54036 -19.15132 -0 0 5.449887 -22.12994 8.392086 6.989746 4.852363 -18.9472 -1.281653 -88.65245 28.27821 10.89331 0 0 -16.78653 -0.06280332 11.24704 13.05336
34.72821 106.7856 382.4743 -0.01704313 -0.2142878 5.757976 5.475541 -9.131673 7.559352 -0 21.43567 -0 -7.595232 -11.1337 -10.19072 -2.13988 -17.24808 -7.406535 -0 59.13834 -0 -6.257663 -5.632325 19.9863 -0.2355384 -10.68794 5.729064 2.553534 8.850768 -5.664476 2.26986 25.32822 3.38028 -1.015814 -16.83606 7.46403 -0.4064785 -17.18057 8.231415 88.74446 18.82211 -15.4757 -0 0 7.629241 -23.01305 8.168692 8.08904 5.0051 -18.22059 -1.096208 -90.94555 28.36743 13.30886 0 0 -15.30669 -0.5740083 11.54276 13.22166
35.08565 107.1264 387.8631 -0.03072552 -0.3452761 4.699808 5.414097 -4.197361 5.942744 -0 17.92621 -0 -7.902922 -12.23999 -9.88979 -1.617385 -21.96738 -7.221659 -0 52.2669 -0 -5.216073 -5.886306 20.58259 -0.07180705 -9.601105 6.308941 2.125132 8.378851 -4.613752 2.06578 25.20267 3.298461 -1.16856 -17.19933 7.219012 -1.154513 -18.4069 8.640018 87.49782 18.93073 -12.37035 -0 0 9.607297 -23.89729 7.957869 9.0316 5.40911 -17.62626 -0.7526056 -92.84239 28.26025 15.73059 0 0 -13.79173 -0.9488301 11.82593 13.35378
